<?xml version="1.0" standalone="no"?><!DOCTYPE svg PUBLIC "-//W3C//DTD SVG 1.1//EN" "http://www.w3.org/Graphics/SVG/1.1/DTD/svg11.dtd"><svg t="1625412032972" class="icon" viewBox="0 0 1024 1024" version="1.1" xmlns="http://www.w3.org/2000/svg" p-id="2380" xmlns:xlink="http://www.w3.org/1999/xlink" width="200" height="200"><defs><style type="text/css"></style></defs><path d="M384 597.333333V85.333333a42.666667 42.666667 0 0 1 61.738667-38.144l341.333333 170.666667a42.666667 42.666667 0 0 1-38.144 76.288L469.333333 154.368V768a213.333333 213.333333 0 1 1-85.333333-170.666667z m-128 298.666667a128 128 0 1 0 0-256 128 128 0 0 0 0 256z m341.333333-426.666667a42.666667 42.666667 0 0 1 0-85.333333h341.333334a42.666667 42.666667 0 0 1 0 85.333333h-341.333334z m0 170.666667a42.666667 42.666667 0 0 1 0-85.333333h341.333334a42.666667 42.666667 0 0 1 0 85.333333h-341.333334z m0 170.666667a42.666667 42.666667 0 0 1 0-85.333334h213.333334a42.666667 42.666667 0 0 1 0 85.333334h-213.333334z" fill="currentColor" p-id="2381"></path></svg>