<?xml version="1.0" standalone="no"?><!DOCTYPE svg PUBLIC "-//W3C//DTD SVG 1.1//EN" "http://www.w3.org/Graphics/SVG/1.1/DTD/svg11.dtd"><svg t="1624160005540" class="icon" viewBox="0 0 1063 1024" version="1.1" xmlns="http://www.w3.org/2000/svg" p-id="4860" xmlns:xlink="http://www.w3.org/1999/xlink" width="207.6171875" height="200"><defs><style type="text/css"></style></defs><path d="M820.5873649024963 643.825795917511a30.119440927505494 30.119440927505494 0 0 0-23.42623208999634-10.131084022521973c-16.91556478500366 0.6388972949981688-30.058593749999993 14.907602519989016-29.419696455001834 31.823166532516474 0.36508383750915524 9.218374042510987 4.928636054992676 17.037259912490846 11.560997714996338 22.391826982498166l36.447565927505494 36.47798990249634a223.4010668849945 223.4010668849945 0 0 1-107.578125-47.73475095748902L372.7204028224945 315.06753334999075A285.3436751174927 285.3436751174927 0 0 0 158.17262614250183 217.80303467750548a30.423677587509154 30.423677587509154 0 1 0 0 60.84735594749451h0.030423974990844725c64.61989176750183 0 126.10614500999452 27.898512382507327 169.33819092750548 77.15444741249084l334.9646932125092 361.5245638275146 6.3889729499816905 5.780498857498169a285.556640625 285.556640625 0 0 0 149.8974609375 63.15955564498903l-40.585186357498166 39.45951009750366 0.7605916500091553 0.7301684474945069a30.180288105010987 30.180288105010987 0 0 0-13.599383955001832 26.04266767501831c0.6693212699890136 16.91556478500366 14.907602519989016 30.119440927505494 31.792743330001834 29.450120429992673a30.058593749999993 30.058593749999993 0 0 0 23.152418632507324-12.899639482498168l0.30423666000366206 0.30423666000366206 114.697265625-111.41150799751281-114.36260499000551-114.4843001174927-0.36508383750915524 0.36508383750915524z" fill="currentColor" p-id="4861"></path><path d="M820.3439754199983 140.2530802249908a30.119440927505494 30.119440927505494 0 0 0-23.18284260749817-12.899639482498168 30.63664386749268 30.63664386749268 0 0 0-31.762319355010987 29.450119657516474 30.119440927505494 30.119440927505494 0 0 0 13.599383955001832 26.01224524497986l-0.7605924224853516 0.7910156249999999 37.54281898498536 36.50841310501099a282.7880859375 282.7880859375 0 0 0-167.99954993247985 82.0830826950073l-99.30288414001465 107.63897294998168 0.15211833000183103 0.15211833000183103a30.119440927505494 30.119440927505494 0 0 0-8.214392910003662 20.475135097503657 30.423677587509154 30.423677587509154 0 0 0 30.423677587509154 30.423677587509154 30.119440927505494 30.119440927505494 0 0 0 22.209284677505494-9.948542490005492l0.15211833000183103 0.15211833000183103 97.78170083999635-106.0569409275055a222.21454344749452 222.21454344749452 0 0 1 128.75300534248353-64.072265625l-40.34179687499999 40.40264405250549a30.210712080001827 30.210712080001827 0 0 0-11.621844892501832 22.422250957489016c-0.6693212699890136 16.91556478500366 12.473707695007322 31.15384603500366 29.38927248001099 31.823166532516474a30.119440927505494 30.119440927505494 0 0 0 23.42623208999634-10.13108479499817l0.36508383750915524 0.3346606349945068 114.36260499000551-114.45387614250183-114.697265625-111.41150876998901-0.30423666000366206 0.3042374324798584zM437.67495522499087 545.1313850975037a30.02816977500916 30.02816977500916 0 0 0-22.1484375 9.857272109985352l-0.15211833000183103-0.12169512748718264-103.31881021499635 111.44193197250365A223.4010668849945 223.4010668849945 0 0 1 158.17262614250183 727.3996394824983v0.36508383750915524c-0.6693212699890136-0.030423974990844725-1.2169474124908448-0.36508383750915524-1.8862679100036623-0.36508383750915524a30.423677587509154 30.423677587509154 0 1 0 0 60.84735594749451c0.6693212699890136 0 1.2169474124908448-0.36508383750915524 1.8862679100036623-0.3650846099853515v0.3650846099853515c73.04725095748901 0 142.5349308300018-27.59427572250366 197.05416177749635-79.1015625l104.7487231349945-112.90226886749265-0.15211833000183103-0.12169435501098633a30.02816977500916 30.02816977500916 0 0 0 8.275240087509154-20.56640625 30.423677587509154 30.423677587509154 0 0 0-30.423677587509154-30.423678359985352" fill="currentColor" p-id="4862"></path></svg>