<?xml version="1.0" standalone="no"?><!DOCTYPE svg PUBLIC "-//W3C//DTD SVG 1.1//EN" "http://www.w3.org/Graphics/SVG/1.1/DTD/svg11.dtd"><svg t="1627914702727" class="icon" viewBox="0 0 1024 1024" version="1.1" xmlns="http://www.w3.org/2000/svg" p-id="2818" xmlns:xlink="http://www.w3.org/1999/xlink" width="200" height="200"><defs><style type="text/css"></style></defs><path d="M512 64a448 448 0 1 1 0 896A448 448 0 0 1 512 64z m136.192 285.44a12.8 12.8 0 0 0-18.112-0.448L506.368 467.136 382.72 348.992l-3.392-2.304a12.8 12.8 0 0 0-14.72 2.688l-35.328 37.056-2.368 3.328a12.8 12.8 0 0 0 2.752 14.72l121.152 115.84-121.152 115.84a12.8 12.8 0 0 0-0.384 18.112l35.328 36.992a12.8 12.8 0 0 0 18.112 0.384L506.368 573.44l123.712 118.272 3.392 2.368a12.8 12.8 0 0 0 14.72-2.752l35.392-36.992 2.304-3.392a12.8 12.8 0 0 0-2.752-14.72L561.92 520.32l121.216-115.84a12.8 12.8 0 0 0 0.448-18.048z" fill="currentColor" p-id="2819"></path></svg>