<?xml version="1.0" standalone="no"?><!DOCTYPE svg PUBLIC "-//W3C//DTD SVG 1.1//EN" "http://www.w3.org/Graphics/SVG/1.1/DTD/svg11.dtd"><svg t="1623767756108" class="icon" viewBox="0 0 1096 1024" version="1.1" xmlns="http://www.w3.org/2000/svg" p-id="9824" xmlns:xlink="http://www.w3.org/1999/xlink" width="214.0625" height="200"><defs><style type="text/css"></style></defs><path d="M548.646764 1023.988928a88.098362 88.098362 0 0 1-48.141182-13.960943C475.472168 993.178571 433.58934 965.256686 385.448158 929.1508a36.105886 36.105886 0 1 1 43.327064-57.769418c48.141182 35.143063 85.209891 61.620712 110.243306 77.988714a12.998119 12.998119 0 0 0 15.405178 0c96.282363-63.54636 417.384044-288.847089 462.636754-512.703583A323.990152 323.990152 0 0 0 863.971503 96.308359c-96.282363-48.141182-197.860256-17.330825-288.847089 84.247068a35.143063 35.143063 0 0 1-26.959062 12.035295 36.105886 36.105886 0 0 1-26.959062-12.035295C433.58934 76.570475 328.641564 48.167178 232.840613 96.308359a322.064504 322.064504 0 0 0-154.051781 342.283801A574.805708 574.805708 0 0 0 241.024614 701.924423a36.105886 36.105886 0 1 1-52.473888 48.141182A639.796303 639.796303 0 0 1 8.021295 450.627455a391.869218 391.869218 0 0 1 192.564726-420.753926c116.020248-57.769418 240.705908-30.810356 348.060743 72.693184C655.520187 0.025996 780.205847-27.895889 895.744683 29.873529a392.832041 392.832041 0 0 1 192.564726 420.753926C1039.205404 702.887247 698.84725 942.630331 595.825122 1010.990809a87.135539 87.135539 0 0 1-47.178358 12.998119z" fill="currentColor" p-id="9825"></path></svg>