<?xml version="1.0" standalone="no"?><!DOCTYPE svg PUBLIC "-//W3C//DTD SVG 1.1//EN" "http://www.w3.org/Graphics/SVG/1.1/DTD/svg11.dtd"><svg t="1624159901207" class="icon" viewBox="0 0 1024 1024" version="1.1" xmlns="http://www.w3.org/2000/svg" p-id="1832" xmlns:xlink="http://www.w3.org/1999/xlink" width="200" height="200"><defs><style type="text/css"></style></defs><path d="M946.483532 467.218074 799.533692 616.474446c-7.998161 8.121981-18.918885 12.697183-30.318516 12.697183-11.399631 0-22.320355-4.575202-30.318516-12.697183L591.945797 467.218074c-16.483416-16.744359-16.270569-43.676755 0.471744-60.165288 16.739243-16.483416 43.665499-16.275685 60.165288 0.471744l82.134649 83.426061c-10.653641-154.415882-137.39216-276.757255-291.758923-276.757255-161.331385 0-292.581662 133.592624-292.581662 297.806663S281.628192 809.80564 442.959577 809.80564c59.380412 0 116.522854-17.97949 165.241438-52.001351 19.271926-13.44522 45.794999-8.733918 59.240219 10.527774 13.45136 19.266809 8.734942 45.789882-10.526751 59.240219-63.078641 44.039006-137.061632 67.321268-213.954907 67.321268-208.246905 0-377.669572-171.763992-377.669572-382.89355s169.421644-382.89355 377.669572-382.89355c196.11561 0 357.741707 152.36006 375.904369 346.45464l66.981531-68.035536c16.499789-16.752546 43.437302-16.950044 60.165288-0.471744C962.755124 423.541319 962.967972 450.473715 946.483532 467.218074z" fill="currentColor" p-id="1833"></path></svg>