<?xml version="1.0" standalone="no"?><!DOCTYPE svg PUBLIC "-//W3C//DTD SVG 1.1//EN" "http://www.w3.org/Graphics/SVG/1.1/DTD/svg11.dtd"><svg t="1623767650354" class="icon" viewBox="0 0 1024 1024" version="1.1" xmlns="http://www.w3.org/2000/svg" p-id="8340" xmlns:xlink="http://www.w3.org/1999/xlink" width="200" height="200"><defs><style type="text/css"></style></defs><path d="M128 304.7L405.59 512 128 719.3V304.7M90.33 203.08c-13.62 0-26.33 10.8-26.33 26.28v565.28c0 15.48 12.71 26.28 26.33 26.28 5.09 0 10.31-1.51 15.04-4.85l381.72-285.06c12.71-9.49 12.71-28.54 0-38.03L105.37 207.92c-4.73-3.33-9.95-4.84-15.04-4.84zM591.38 304.7L868.97 512 591.38 719.3V304.7m-37.67-101.62c-13.62 0-26.33 10.8-26.33 26.28v565.28c0 15.48 12.71 26.28 26.33 26.28 5.09 0 10.31-1.51 15.04-4.85l381.72-285.06c12.71-9.49 12.71-28.54 0-38.03L568.75 207.92c-4.73-3.33-9.95-4.84-15.04-4.84z" fill="currentColor" p-id="8341"></path></svg>