<?xml version="1.0" standalone="no"?><!DOCTYPE svg PUBLIC "-//W3C//DTD SVG 1.1//EN" "http://www.w3.org/Graphics/SVG/1.1/DTD/svg11.dtd"><svg t="1624286874343" class="icon" viewBox="0 0 1024 1024" version="1.1" xmlns="http://www.w3.org/2000/svg" p-id="4513" xmlns:xlink="http://www.w3.org/1999/xlink" width="200" height="200"><defs><style type="text/css"></style></defs><path d="M707.392 93.355c-77.264 0-149.104 38.759-196.389 102.673C463.745 132.099 391.92 93.355 314.614 93.355c-139.281 0-252.596 123.888-252.596 276.181 0 90.853 40.585 154.588 73.209 205.797 94.816 148.743 333.217 333.849 343.314 341.653 9.727 7.52 21.1 11.282 32.447 11.282 11.373 0 22.73-3.761 32.447-11.282 10.11-7.804 248.524-192.91 343.313-341.653 32.64-51.209 73.238-114.944 73.238-205.797C959.985 217.244 846.67 93.355 707.39 93.355z m133.236 446.827c-90.254 141.629-329.64 326.614-329.64 326.614S271.629 681.81 181.347 540.182c-33.296-52.287-63.11-101.983-63.11-170.647 0-118.568 87.912-214.725 196.376-214.725 80.155 0 148.967 52.588 179.494 127.875v-0.375h0.082c2.274 7.851 8.905 13.575 16.798 13.575 7.921 0 14.552-5.723 16.812-13.575h0.232c30.597-75.062 99.313-127.499 179.359-127.499 108.438 0 196.376 96.157 196.376 214.725 0 68.663-29.816 118.359-63.14 170.647z" fill="currentColor" p-id="4514"></path></svg>