<?xml version="1.0" standalone="no"?><!DOCTYPE svg PUBLIC "-//W3C//DTD SVG 1.1//EN" "http://www.w3.org/Graphics/SVG/1.1/DTD/svg11.dtd"><svg t="1626794586815" class="icon" viewBox="0 0 1024 1024" version="1.1" xmlns="http://www.w3.org/2000/svg" p-id="7917" xmlns:xlink="http://www.w3.org/1999/xlink" width="200" height="200"><defs><style type="text/css"></style></defs><path d="M690.850543 0v322.576129l179.20896-148.79464V0z m-537.626882 174.088704l179.208961 148.79464V0h-179.208961z m256.012801 212.541828l76.80384 64.0032a36.251413 36.251413 0 0 0 50.79294 0l76.80384-64.0032V0h-204.810241v386.425721z" fill="#FA6D74" p-id="7918"></path><path d="M903.904395 525.440672a165.077054 165.077054 0 0 1-69.942697-168.968448c10.752538-70.557128-19.20096-100.254613-89.655683-89.758088a165.486674 165.486674 0 0 1-168.968448-70.045103q-63.439972-85.917896-126.828742 0a165.486674 165.486674 0 0 1-168.968448 70.045103Q173.858293 250.585329 189.884694 356.472224a164.923446 164.923446 0 0 1-69.942697 168.968448c-57.39807 42.19091-57.39807 84.637832 0 126.828741a165.077054 165.077054 0 0 1 69.942697 168.968449c-10.752538 70.557128 19.20096 100.254613 89.655683 89.758088a165.486674 165.486674 0 0 1 168.968448 70.045102q63.439972 85.917896 126.828742 0a165.486674 165.486674 0 0 1 168.968448-70.045102q105.682084 16.128806 89.655683-89.758088a164.923446 164.923446 0 0 1 69.942697-168.968449c57.39807-42.19091 57.39807-84.637832 0-126.828741z" fill="#FDE51B" p-id="7919"></path><path d="M230.129906 588.829441a281.614081 281.614081 0 1 0 281.614081-281.61408 281.614081 281.614081 0 0 0-281.614081 281.61408z" fill="#FDBA36" p-id="7920"></path><path d="M571.292565 742.437122v-307.215361H500.479424l-65.539277 57.142057v75.523776l65.539277-57.142057V742.437122z" fill="#FFFFFF" p-id="7921"></path></svg>