<?xml version="1.0" standalone="no"?><!DOCTYPE svg PUBLIC "-//W3C//DTD SVG 1.1//EN" "http://www.w3.org/Graphics/SVG/1.1/DTD/svg11.dtd"><svg t="1625499251122" class="icon" viewBox="0 0 1024 1024" version="1.1" xmlns="http://www.w3.org/2000/svg" p-id="6550" xmlns:xlink="http://www.w3.org/1999/xlink" width="200" height="200"><defs><style type="text/css"></style></defs><path d="M987.43 268.19H36.571a36.571 36.571 0 0 1 0-73.142H243.811V73.143A73.143 73.143 0 0 1 316.953 0h390.096a73.143 73.143 0 0 1 73.142 73.143v121.905H987.431a36.571 36.571 0 0 1 0 73.142zM707.049 121.905a48.762 48.762 0 0 0-48.762-48.762H365.715a48.762 48.762 0 0 0-48.762 48.762v73.143h390.096v-73.143zM341.334 816.762V426.667a36.571 36.571 0 0 1 73.143 0v390.095a36.571 36.571 0 0 1-73.143 0z m268.19 0V426.667a36.571 36.571 0 0 1 73.144 0v390.095a36.571 36.571 0 0 1-73.143 0z m-451.047-499.81a36.254 36.254 0 0 1 34.134 24.381h2.438v560.762a48.762 48.762 0 0 0 48.762 48.762h536.38a48.762 48.762 0 0 0 48.762-48.762V341.333h2.438a36.06 36.06 0 0 1 68.267 0h2.438v609.524A73.143 73.143 0 0 1 828.953 1024H195.049a73.143 73.143 0 0 1-73.143-73.143V341.333h2.438a36.254 36.254 0 0 1 34.133-24.38z" fill="currentColor" p-id="6551"></path></svg>