<?xml version="1.0" standalone="no"?><!DOCTYPE svg PUBLIC "-//W3C//DTD SVG 1.1//EN" "http://www.w3.org/Graphics/SVG/1.1/DTD/svg11.dtd"><svg t="1626794500597" class="icon" viewBox="0 0 1024 1024" version="1.1" xmlns="http://www.w3.org/2000/svg" p-id="6239" xmlns:xlink="http://www.w3.org/1999/xlink" width="200" height="200"><defs><style type="text/css"></style></defs><path d="M296.353185 26.244741h427.728593v142.601481H296.353185z" fill="#B3C8DA" p-id="6240"></path><path d="M367.653926 26.244741h71.300741v142.601481h-71.300741V26.206815z m213.902222 0h71.262815v142.601481h-71.300741V26.206815z" fill="#FFFFFF" p-id="6241"></path><path d="M456.779852 168.808296h106.951111v178.251852h-106.951111z" fill="#D8E3EB" p-id="6242"></path><path d="M403.342222 347.022222l81.692445-81.692444a35.65037 35.65037 0 0 1 50.441481 0l81.692445 81.73037h142.601481a35.65037 35.65037 0 0 1 35.65037 35.650371v142.563555l81.692445 81.73037a35.65037 35.65037 0 0 1 0 50.403556l-81.692445 81.73037v142.601482a35.65037 35.65037 0 0 1-35.65037 35.65037h-142.601481l-81.654519 81.692445a35.65037 35.65037 0 0 1-50.441481 0l-81.730371-81.730371h-142.601481a35.65037 35.65037 0 0 1-35.650371-35.65037V739.176296L143.36 657.408a35.65037 35.65037 0 0 1 0-50.403556l81.73037-81.73037v-142.601481c0-19.64563 15.928889-35.65037 35.650371-35.650371h142.563555z" fill="#D8E3EB" p-id="6243"></path><path d="M278.528 632.225185a231.689481 231.689481 0 1 0 463.378963 0 231.689481 231.689481 0 0 0-463.378963 0z" fill="#B3C8DA" p-id="6244"></path><path d="M512.037926 489.623704c23.514074 0 42.780444 6.788741 58.102518 20.328296 14.980741 13.539556 22.831407 31.706074 22.831408 53.816889 0 22.110815-8.571259 42.059852-24.955259 59.885037-8.912593 9.253926-26.396444 23.134815-52.754963 40.96-32.426667 21.769481-50.972444 41.377185-55.599408 58.481778h133.650963v26.017185H423.632593c0-23.134815 8.229926-44.183704 25.334518-63.070815 9.974519-11.415704 28.141037-26.737778 55.258074-45.283555 19.949037-14.260148 33.147259-24.576 39.898074-31.706075 12.818963-13.918815 19.607704-29.240889 19.607704-45.624888 0-15.701333-4.626963-27.45837-13.880889-36.02963-9.291852-8.533333-22.490074-12.818963-38.874074-12.818963-17.445926 0-31.023407 5.688889-40.277333 17.825185-9.974519 11.377778-15.322074 28.520296-15.663408 50.972445h-29.240889c0-28.520296 8.192-51.313778 23.893334-68.077037 15.663407-17.104593 36.712296-25.675852 62.350222-25.675852z" fill="#FFFFFF" p-id="6245"></path></svg>