<?xml version="1.0" standalone="no"?><!DOCTYPE svg PUBLIC "-//W3C//DTD SVG 1.1//EN" "http://www.w3.org/Graphics/SVG/1.1/DTD/svg11.dtd"><svg t="1628000675830" class="icon" viewBox="0 0 1024 1024" version="1.1" xmlns="http://www.w3.org/2000/svg" p-id="4823" xmlns:xlink="http://www.w3.org/1999/xlink" width="200" height="200"><defs><style type="text/css"></style></defs><path d="M628.128 605.1C855.354 653.032 1024 829.38 1024 919.62v47.46c0 31.418-25.47 56.888-56.888 56.888H56.888C25.47 1023.97 0 998.5 0 967.082v-47.46c0-95.946 173.362-269.54 400.102-315.422v-52.04c-69.592-55.608-116.598-165.184-116.598-309.64C283.504 29.414 442.694 0 512 0c69.306 0 228.496 29.414 228.496 242.52 0 141.508-45.108 249.546-112.368 306.17v56.41z m-59.24 46.54v-107.028c59.786-50.332 113.78-134.382 113.78-260.168 0-189.426-52.174-227.556-170.668-227.556s-170.666 38.13-170.666 227.556c0 128.406 51.918 210.74 113.778 260.168v107.03C253.564 692.426 56.888 824.938 56.888 910.22v56.86h910.224v-56.86c0-80.214-196.244-215.974-398.224-258.58z" fill="#000000" p-id="4824"></path></svg>