<?xml version="1.0" standalone="no"?><!DOCTYPE svg PUBLIC "-//W3C//DTD SVG 1.1//EN" "http://www.w3.org/Graphics/SVG/1.1/DTD/svg11.dtd"><svg t="1623767585612" class="icon" viewBox="0 0 1024 1024" version="1.1" xmlns="http://www.w3.org/2000/svg" p-id="5999" xmlns:xlink="http://www.w3.org/1999/xlink" width="200" height="200"><defs><style type="text/css"></style></defs><path d="M896 304.7v414.6L618.41 512 896 304.7m37.67-101.62c-5.09 0-10.31 1.51-15.04 4.85L536.92 492.98c-12.71 9.49-12.71 28.54 0 38.03l381.72 285.06c4.73 3.34 9.95 4.85 15.04 4.85 13.62 0 26.33-10.8 26.33-26.28V229.36c-0.01-15.48-12.72-26.28-26.34-26.28zM432.62 304.7v414.6L155.03 512l277.59-207.3m37.67-101.62c-5.09 0-10.31 1.51-15.04 4.85L73.53 492.98c-12.71 9.49-12.71 28.54 0 38.03l381.72 285.06c4.73 3.34 9.95 4.85 15.04 4.85 13.62 0 26.33-10.8 26.33-26.28V229.36c0-15.48-12.71-26.28-26.33-26.28z" fill="currentColor" p-id="6000"></path></svg>